<svg width="32" height="32" viewBox="0 0 32 32" fill="none" xmlns="http://www.w3.org/2000/svg">
  <!-- Background circle -->
  <circle cx="16" cy="16" r="15" fill="#10B981" stroke="#059669" stroke-width="1"/>
  
  <!-- Heart symbol -->
  <path d="M16 10C16 10 18 8 20 10C22 12 16 18 16 18C16 18 10 12 12 10C14 8 16 10 16 10Z" fill="white"/>
  
  <!-- ECG waveform -->
  <path d="M10 16L12 16L13 14L14 18L15 10L16 22L17 8L18 20L19 16L21 16" stroke="white" stroke-width="1.25" stroke-linecap="round" stroke-linejoin="round" fill="none"/>
  
  <!-- AI/Technology elements -->
  <circle cx="24" cy="8" r="1.5" fill="#3B82F6" opacity="0.8"/>
  <circle cx="8" cy="24" r="1" fill="#8B5CF6" opacity="0.8"/>
  <circle cx="24" cy="24" r="1" fill="#F59E0B" opacity="0.8"/>
  
  <!-- Connection lines -->
  <path d="M16 10L24 8" stroke="#3B82F6" stroke-width="0.5" opacity="0.6"/>
  <path d="M16 10L8 24" stroke="#8B5CF6" stroke-width="0.5" opacity="0.6"/>
  <path d="M16 10L24 24" stroke="#F59E0B" stroke-width="0.5" opacity="0.6"/>
</svg>