
<svg width="64" height="64" viewBox="0 0 64 64" fill="none" xmlns="http://www.w3.org/2000/svg">
  <!-- Background circle -->
  <circle cx="32" cy="32" r="30" fill="#10B981" stroke="#059669" stroke-width="2"/>
  
  <!-- Heart symbol -->
  <path d="M32 45c-7-7-14-14-14-21 0-4 3-7 7-7 2 0 4 1 5 3 1 1 2 1 2 1s1 0 2-1c1-2 3-3 5-3 4 0 7 3 7 7 0 7-7 14-14 21z" fill="white"/>
  
  <!-- ECG waveform -->
  <path d="M20 32L24 32L26 28L28 36L30 20L32 44L34 16L36 40L38 32L42 32" stroke="white" stroke-width="2.5" stroke-linecap="round" stroke-linejoin="round" fill="none"/>
  
  <!-- AI/Technology elements -->
  <circle cx="48" cy="16" r="3" fill="#3B82F6" opacity="0.8"/>
  <circle cx="16" cy="48" r="2" fill="#8B5CF6" opacity="0.8"/>
  <circle cx="48" cy="48" r="2" fill="#F59E0B" opacity="0.8"/>
  
  <!-- Connection lines -->
  <path d="M32 20L48 16" stroke="#3B82F6" stroke-width="1" opacity="0.6"/>
  <path d="M32 20L16 48" stroke="#8B5CF6" stroke-width="1" opacity="0.6"/>
  <path d="M32 20L48 48" stroke="#F59E0B" stroke-width="1" opacity="0.6"/>
</svg>
